<svg xmlns="http://www.w3.org/2000/svg" width="400" height="240" viewBox="0 0 400 240">
  <rect width="400" height="240" rx="12" fill="#F5F3FF"/>
  <!-- Header -->
  <text x="24" y="36" font-family="sans-serif" font-size="16" fill="#333" font-weight="700">연락처</text>
  <!-- Filter tabs -->
  <rect x="24" y="48" width="48" height="24" rx="12" fill="#8b5cf6"/>
  <text x="35" y="64" font-family="sans-serif" font-size="10" fill="#fff" font-weight="600">전체</text>
  <rect x="80" y="48" width="40" height="24" rx="12" fill="#8b5cf6" opacity="0.1"/>
  <text x="89" y="64" font-family="sans-serif" font-size="10" fill="#8b5cf6">VIP</text>
  <rect x="128" y="48" width="40" height="24" rx="12" fill="#8b5cf6" opacity="0.1"/>
  <text x="137" y="64" font-family="sans-serif" font-size="10" fill="#8b5cf6">신규</text>
  <!-- Table header -->
  <rect x="20" y="82" width="360" height="28" rx="6" fill="#8b5cf6" opacity="0.06"/>
  <text x="36" y="100" font-family="sans-serif" font-size="10" fill="#666" font-weight="600">사용자명</text>
  <text x="160" y="100" font-family="sans-serif" font-size="10" fill="#666" font-weight="600">태그</text>
  <text x="280" y="100" font-family="sans-serif" font-size="10" fill="#666" font-weight="600">상태</text>
  <!-- Row 1 -->
  <rect x="20" y="114" width="360" height="36" rx="0" fill="#fff"/>
  <circle cx="36" cy="132" r="10" fill="#8b5cf6" opacity="0.15"/>
  <text x="32" y="136" font-family="sans-serif" font-size="9" fill="#8b5cf6">K</text>
  <text x="52" y="136" font-family="sans-serif" font-size="11" fill="#333">김민수</text>
  <rect x="160" y="124" width="34" height="18" rx="9" fill="#8b5cf6" opacity="0.12"/>
  <text x="167" y="137" font-family="sans-serif" font-size="8" fill="#8b5cf6">VIP</text>
  <rect x="200" y="124" width="40" height="18" rx="9" fill="#10b981" opacity="0.12"/>
  <text x="207" y="137" font-family="sans-serif" font-size="8" fill="#10b981">구매</text>
  <circle cx="290" cy="132" r="5" fill="#22c55e"/>
  <text x="300" y="136" font-family="sans-serif" font-size="10" fill="#666">활성</text>
  <!-- Row 2 -->
  <line x1="20" y1="150" x2="380" y2="150" stroke="#f0f0f0"/>
  <rect x="20" y="152" width="360" height="36" rx="0" fill="#fff"/>
  <circle cx="36" cy="170" r="10" fill="#f59e0b" opacity="0.15"/>
  <text x="32" y="174" font-family="sans-serif" font-size="9" fill="#f59e0b">L</text>
  <text x="52" y="174" font-family="sans-serif" font-size="11" fill="#333">이지은</text>
  <rect x="160" y="162" width="34" height="18" rx="9" fill="#3b82f6" opacity="0.12"/>
  <text x="167" y="175" font-family="sans-serif" font-size="8" fill="#3b82f6">신규</text>
  <circle cx="290" cy="170" r="5" fill="#22c55e"/>
  <text x="300" y="174" font-family="sans-serif" font-size="10" fill="#666">활성</text>
  <!-- Row 3 -->
  <line x1="20" y1="188" x2="380" y2="188" stroke="#f0f0f0"/>
  <rect x="20" y="190" width="360" height="36" rx="0" fill="#fff"/>
  <circle cx="36" cy="208" r="10" fill="#ef4444" opacity="0.15"/>
  <text x="32" y="212" font-family="sans-serif" font-size="9" fill="#ef4444">P</text>
  <text x="52" y="212" font-family="sans-serif" font-size="11" fill="#333">박준호</text>
  <rect x="160" y="200" width="48" height="18" rx="9" fill="#f59e0b" opacity="0.12"/>
  <text x="167" y="213" font-family="sans-serif" font-size="8" fill="#f59e0b">관심고객</text>
  <circle cx="290" cy="208" r="5" fill="#eab308"/>
  <text x="300" y="212" font-family="sans-serif" font-size="10" fill="#666">대기</text>
</svg>