<svg xmlns="http://www.w3.org/2000/svg" width="400" height="240" viewBox="0 0 400 240">
  <rect width="400" height="240" rx="12" fill="#ECFDF5"/>
  <!-- Header -->
  <text x="24" y="40" font-family="sans-serif" font-size="16" fill="#333" font-weight="700">시퀀스</text>
  <rect x="290" y="20" width="92" height="32" rx="8" fill="#10b981"/>
  <text x="300" y="41" font-family="sans-serif" font-size="12" fill="#fff" font-weight="600">+ 새 시퀀스</text>
  <!-- Timeline -->
  <!-- Vertical line -->
  <line x1="60" y1="76" x2="60" y2="216" stroke="#10b981" stroke-width="2" stroke-dasharray="4,4" opacity="0.4"/>
  <!-- Day 1 -->
  <circle cx="60" cy="88" r="12" fill="#10b981"/>
  <text x="54" y="93" font-family="sans-serif" font-size="10" fill="#fff" font-weight="700">1</text>
  <rect x="84" y="72" width="292" height="40" rx="8" fill="#fff" stroke="#10b981" stroke-opacity="0.2"/>
  <text x="100" y="88" font-family="sans-serif" font-size="11" fill="#333" font-weight="600">Day 1 - 환영 메시지</text>
  <text x="100" y="104" font-family="sans-serif" font-size="9" fill="#999">팔로우 직후 자동 발송</text>
  <rect x="328" y="82" width="38" height="20" rx="4" fill="#10b981" opacity="0.12"/>
  <text x="333" y="96" font-family="sans-serif" font-size="9" fill="#10b981">활성</text>
  <!-- Day 3 -->
  <circle cx="60" cy="140" r="12" fill="#10b981"/>
  <text x="54" y="145" font-family="sans-serif" font-size="10" fill="#fff" font-weight="700">3</text>
  <rect x="84" y="124" width="292" height="40" rx="8" fill="#fff" stroke="#10b981" stroke-opacity="0.2"/>
  <text x="100" y="140" font-family="sans-serif" font-size="11" fill="#333" font-weight="600">Day 3 - 혜택 안내</text>
  <text x="100" y="156" font-family="sans-serif" font-size="9" fill="#999">첫 구매 할인 쿠폰 발송</text>
  <rect x="328" y="134" width="38" height="20" rx="4" fill="#10b981" opacity="0.12"/>
  <text x="333" y="148" font-family="sans-serif" font-size="9" fill="#10b981">활성</text>
  <!-- Day 7 -->
  <circle cx="60" cy="192" r="12" fill="#10b981"/>
  <text x="54" y="197" font-family="sans-serif" font-size="10" fill="#fff" font-weight="700">7</text>
  <rect x="84" y="176" width="292" height="40" rx="8" fill="#fff" stroke="#10b981" stroke-opacity="0.2"/>
  <text x="100" y="192" font-family="sans-serif" font-size="11" fill="#333" font-weight="600">Day 7 - 리뷰 요청</text>
  <text x="100" y="208" font-family="sans-serif" font-size="9" fill="#999">구매 경험 리뷰 부탁 메시지</text>
  <rect x="328" y="186" width="38" height="20" rx="4" fill="#fbbf24" opacity="0.2"/>
  <text x="332" y="200" font-family="sans-serif" font-size="9" fill="#b45309">대기</text>
</svg>