<svg xmlns="http://www.w3.org/2000/svg" width="400" height="240" viewBox="0 0 400 240">
  <rect width="400" height="240" rx="12" fill="#FFF0F3"/>
  <!-- Left sidebar -->
  <rect x="16" y="16" width="110" height="208" rx="8" fill="#fff" stroke="#E1306C" stroke-opacity="0.2"/>
  <rect x="24" y="28" width="94" height="28" rx="6" fill="#E1306C" opacity="0.12"/>
  <text x="42" y="47" font-family="sans-serif" font-size="11" fill="#E1306C" font-weight="600">계정 연결</text>
  <rect x="24" y="64" width="94" height="24" rx="6" fill="transparent"/>
  <text x="42" y="80" font-family="sans-serif" font-size="10" fill="#888">메시징</text>
  <rect x="24" y="94" width="94" height="24" rx="6" fill="transparent"/>
  <text x="42" y="110" font-family="sans-serif" font-size="10" fill="#888">프로필</text>
  <rect x="24" y="124" width="94" height="24" rx="6" fill="transparent"/>
  <text x="42" y="140" font-family="sans-serif" font-size="10" fill="#888">알림</text>
  <!-- Right content -->
  <rect x="140" y="16" width="244" height="208" rx="8" fill="#fff" stroke="#E1306C" stroke-opacity="0.1"/>
  <text x="160" y="48" font-family="sans-serif" font-size="14" fill="#333" font-weight="700">Instagram 계정 연결</text>
  <!-- Account card -->
  <rect x="156" y="64" width="212" height="56" rx="8" fill="#FFF0F3" stroke="#E1306C" stroke-opacity="0.15"/>
  <circle cx="180" cy="92" r="16" fill="#E1306C" opacity="0.15"/>
  <circle cx="180" cy="88" r="5" fill="#E1306C" opacity="0.5"/>
  <ellipse cx="180" cy="100" rx="8" ry="5" fill="#E1306C" opacity="0.3"/>
  <text x="204" y="86" font-family="sans-serif" font-size="12" fill="#333" font-weight="600">@my_account</text>
  <text x="204" y="102" font-family="sans-serif" font-size="10" fill="#999">연결됨</text>
  <circle cx="348" cy="92" r="6" fill="#22c55e"/>
  <!-- Connect button -->
  <rect x="156" y="136" width="212" height="40" rx="8" fill="#E1306C"/>
  <text x="216" y="161" font-family="sans-serif" font-size="13" fill="#fff" font-weight="600">+ Instagram 연결</text>
  <!-- Info text -->
  <text x="160" y="200" font-family="sans-serif" font-size="10" fill="#aaa">Instagram Business 또는 Creator 계정이 필요합니다</text>
</svg>